<svg xmlns="http://www.w3.org/2000/svg" viewBox="0 0 512 512">
<path d="M490.083,77.869l-54.808-55.806c-0.032-0.032-0.063-0.064-0.096-0.096C421.015,7.802,402.181,0,382.147,0 C373.046,0,54.077,0,45,0C20.187,0,0,20.187,0,45v422c0,24.813,20.187,45,45,45c22.168,0,404.583,0,422,0 c24.813,0,45-20.187,45-45V131.853C512,111.798,503.809,91.624,490.083,77.869z M332,30h30v122h-30V30z M272,30h30v122h-30V30z M150,30h92v122h-92V30z M392,482H120V332h272V482z M392,302H120v-30h272V302z M482.001,467H482c0,8.271-6.729,15-15,15h-45V257
	c0-8.284-6.716-15-15-15H105c-8.284,0-15,6.716-15,15v225H45c-8.271,0-15-6.729-15-15V45c0-8.271,6.729-15,15-15h75v137 c0,8.284,6.716,15,15,15c9.75,0,231.013,0,242,0c8.284,0,15-6.716,15-15V31.089c8.237,1.831,15.806,5.946,21.924,12.048 l54.801,55.8c0.032,0.032,0.063,0.064,0.096,0.096c8.253,8.253,13.18,20.522,13.18,32.82V467z"/>
<path d="M347,362H165c-8.284,0-15,6.716-15,15s6.716,15,15,15h182c8.284,0,15-6.716,15-15S355.284,362,347,362z"/>
<path d="M347,422H165c-8.284,0-15,6.716-15,15s6.716,15,15,15h182c8.284,0,15-6.716,15-15S355.284,422,347,422z"/>
</svg>
